<svg xmlns="http://www.w3.org/2000/svg" width="183" height="306" fill="none" viewBox="0 0 183 306">
  <path fill="#fff" d="M37.5 189.4v-14.1h64.8c9.4 0 17.7-1.8 24.9-5.4 7.2-3.8 12.9-9.1 17.1-15.9 4.2-7 6.3-15.2 6.3-24.6 0-9.4-2.1-17.5-6.3-24.3-4.2-7-9.9-12.3-17.1-15.9-7.2-3.8-15.5-5.7-24.9-5.7H37.5V69.4h66.6c12 0 22.6 2.5 31.8 7.5 9.4 4.8 16.8 11.7 22.2 20.7 5.6 9 8.4 19.6 8.4 31.8s-2.8 22.8-8.4 31.8c-5.4 8.8-12.8 15.7-22.2 20.7-9.2 5-19.8 7.5-31.8 7.5H37.5ZM27.9 274V69.4h15.9V274H27.9Z"/>
  <path fill="#fff" d="M154 124.185c0 32.096-25.872 53.924-57.207 58.115-86.954 11.63-64.072-39.066-64.072-71.161C32.72 79.043 38.883 72 70.477 72 102.072 72 154 92.089 154 124.185Z"/>
  <ellipse cx="50.154" cy="164.75" fill="#2F2F2F" rx="6.154" ry="6.25"/>
  <ellipse cx="77.231" cy="137.25" fill="#2F2F2F" rx="6.154" ry="6.25"/>
  <ellipse cx="117.847" cy="151" fill="#2F2F2F" rx="7.385" ry="7.5"/>
  <ellipse cx="132.615" cy="108.5" fill="#2F2F2F" rx="7.385" ry="7.5"/>
  <path stroke="#2F2F2F" stroke-width=".2" d="M0-.1h40.412" transform="matrix(.67002 -.74235 .73191 .6814 51.384 166)"/>
  <path stroke="#2F2F2F" stroke-width=".2" d="M0-.1h41.321" transform="matrix(.95315 .30251 -.29409 .95578 78.46 138.5)"/>
  <path stroke="#2F2F2F" stroke-width=".2" d="M0-.1h47.362" transform="matrix(.31184 -.95013 .9472 .32066 117.846 153.5)"/>
</svg>
