<svg xmlns="http://www.w3.org/2000/svg" width="180" height="161" fill="none" viewBox="0 0 180 161">
  <path fill="#000" d="M16 91.904v-6.016h27.648c4.01 0 7.552-.768 10.624-2.304 3.072-1.621 5.504-3.883 7.296-6.784 1.792-2.987 2.688-6.485 2.688-10.496 0-4.01-.896-7.467-2.688-10.368-1.792-2.987-4.224-5.248-7.296-6.784-3.072-1.621-6.613-2.432-10.624-2.432H16v-6.016h28.416c5.12 0 9.643 1.067 13.568 3.2 4.01 2.048 7.168 4.992 9.472 8.832 2.39 3.84 3.584 8.363 3.584 13.568s-1.195 9.728-3.584 13.568c-2.304 3.755-5.461 6.699-9.472 8.832-3.925 2.133-8.448 3.2-13.568 3.2H16ZM11.904 128V40.704h6.784V128h-6.784Z"/>
  <path fill="#000" d="M67.832 65.5c0 13.531-11.196 22.733-24.757 24.5-37.629 4.903-27.727-16.469-27.727-30 0-13.531 2.667-16.5 16.34-16.5 13.672 0 36.144 8.47 36.144 22Z"/>
  <ellipse cx="23.271" cy="79.5" fill="#D9D9D9" rx="2.476" ry="2.5"/>
  <ellipse cx="34.164" cy="68.5" fill="#D9D9D9" rx="2.476" ry="2.5"/>
  <ellipse cx="50.503" cy="74" fill="#D9D9D9" rx="2.971" ry="3"/>
  <ellipse cx="56.444" cy="57" fill="#D9D9D9" rx="2.971" ry="3"/>
  <path stroke="#D9D9D9" stroke-width=".2" d="M0-.1h16.207" transform="matrix(.67212 -.74044 .73385 .67931 23.766 80)"/>
  <path stroke="#D9D9D9" stroke-width=".2" d="M0-.1h16.614" transform="matrix(.95364 .30095 -.29562 .9553 34.659 69)"/>
  <path stroke="#D9D9D9" stroke-width=".2" d="M0-.1h18.955" transform="matrix(.31345 -.9496 .94775 .31903 50.503 75)"/>
  <path fill="#000" d="M29.2 128v-18.4h1.24V128H29.2Zm1.24-11.24-.84-.24c0-2.347.613-4.147 1.84-5.4 1.253-1.28 2.813-1.92 4.68-1.92.907 0 1.747.16 2.52.48.8.32 1.533.827 2.2 1.52l-.84.92c-.56-.613-1.173-1.053-1.84-1.32-.64-.267-1.387-.4-2.24-.4-1.627 0-2.947.56-3.96 1.68-1.013 1.093-1.52 2.653-1.52 4.68Zm21.688 11.64c-1.786 0-3.4-.427-4.84-1.28-1.413-.853-2.546-2.013-3.4-3.48-.826-1.467-1.24-3.107-1.24-4.92 0-1.787.414-3.4 1.24-4.84a9.447 9.447 0 0 1 3.4-3.4c1.44-.853 3.054-1.28 4.84-1.28 1.76 0 3.347.427 4.76 1.28a9.05 9.05 0 0 1 3.4 3.4c.854 1.44 1.28 3.053 1.28 4.84 0 1.84-.426 3.493-1.28 4.96a9.345 9.345 0 0 1-3.4 3.44c-1.413.853-3 1.28-4.76 1.28Zm0-1.16c1.547 0 2.934-.373 4.16-1.12a8.2 8.2 0 0 0 2.92-3.04c.72-1.307 1.08-2.773 1.08-4.4 0-1.573-.36-2.987-1.08-4.24a7.978 7.978 0 0 0-2.92-2.96c-1.226-.747-2.613-1.12-4.16-1.12-1.546 0-2.946.373-4.2 1.12a7.978 7.978 0 0 0-2.92 2.96c-.72 1.253-1.08 2.68-1.08 4.28 0 1.627.36 3.08 1.08 4.36a8.2 8.2 0 0 0 2.92 3.04c1.254.747 2.654 1.12 4.2 1.12Zm19.93 1.16c-.987 0-1.92-.133-2.8-.4a9.435 9.435 0 0 1-2.32-1.16 10.286 10.286 0 0 1-1.84-1.72l.84-.88c.8 1.04 1.72 1.813 2.76 2.32 1.04.48 2.174.72 3.4.72 1.52 0 2.734-.32 3.64-.96.907-.667 1.36-1.573 1.36-2.72 0-1.013-.266-1.813-.8-2.4-.507-.587-1.173-1.04-2-1.36a30.71 30.71 0 0 0-2.64-.88 24.855 24.855 0 0 1-2.6-.92c-.827-.373-1.507-.88-2.04-1.52-.507-.667-.76-1.56-.76-2.68 0-.907.24-1.707.72-2.4.48-.693 1.16-1.24 2.04-1.64.88-.4 1.92-.6 3.12-.6 1.307 0 2.507.24 3.6.72 1.094.453 1.947 1.12 2.56 2l-.84.84c-.533-.747-1.28-1.333-2.24-1.76-.96-.453-2.026-.68-3.2-.68-1.493 0-2.627.333-3.4 1-.773.667-1.16 1.493-1.16 2.48 0 .933.254 1.667.76 2.2.533.533 1.213.947 2.04 1.24a50.75 50.75 0 0 0 2.6.84c.933.24 1.813.56 2.64.96a4.944 4.944 0 0 1 2 1.6c.533.667.8 1.6.8 2.8 0 1.52-.573 2.733-1.72 3.64-1.12.88-2.627 1.32-4.52 1.32Zm20.56 0c-1.387 0-2.667-.267-3.84-.8a8.708 8.708 0 0 1-2.96-2.24c-.8-.987-1.36-2.133-1.68-3.44v-6.28c.32-1.36.893-2.52 1.72-3.48a8.197 8.197 0 0 1 3-2.2 9.377 9.377 0 0 1 3.76-.76c1.76 0 3.32.427 4.68 1.28 1.386.827 2.48 1.973 3.28 3.44.8 1.44 1.2 3.08 1.2 4.92 0 1.813-.4 3.44-1.2 4.88a8.929 8.929 0 0 1-3.24 3.44c-1.387.827-2.96 1.24-4.72 1.24Zm-9.16 7.44V109.6h1.24v4.48l-.4 4.44.4 4.56v12.76h-1.24Zm8.92-8.6c1.6 0 3-.36 4.2-1.08a7.606 7.606 0 0 0 2.88-3c.693-1.28 1.04-2.733 1.04-4.36 0-1.653-.347-3.107-1.04-4.36-.694-1.28-1.64-2.28-2.84-3-1.2-.72-2.573-1.08-4.12-1.08-1.547 0-2.907.36-4.08 1.08-1.174.72-2.094 1.72-2.76 3-.667 1.253-1 2.72-1 4.4 0 1.627.32 3.08.96 4.36.666 1.253 1.573 2.24 2.72 2.96 1.173.72 2.52 1.08 4.04 1.08Zm23.075 1.16c-1.84 0-3.494-.413-4.96-1.24a9.659 9.659 0 0 1-3.44-3.44c-.827-1.467-1.24-3.12-1.24-4.96 0-1.813.4-3.44 1.2-4.88a9.13 9.13 0 0 1 3.36-3.4c1.44-.853 3.053-1.28 4.84-1.28 1.653 0 3.106.373 4.36 1.12a7.65 7.65 0 0 1 3 3.04c.72 1.307 1.08 2.813 1.08 4.52 0 .107-.014.28-.04.52 0 .213-.027.493-.08.84h-16.84v-1.16h16.04l-.36.28c.106-1.573-.134-2.96-.72-4.16-.587-1.2-1.44-2.133-2.56-2.8-1.094-.693-2.4-1.04-3.92-1.04-1.6 0-3.014.36-4.24 1.08-1.2.693-2.147 1.667-2.84 2.92-.667 1.227-1 2.667-1 4.32 0 1.707.346 3.2 1.04 4.48a7.725 7.725 0 0 0 3 3c1.28.72 2.773 1.08 4.48 1.08 1.28 0 2.453-.24 3.52-.72a7.036 7.036 0 0 0 2.76-2.16l.84.84c-.827.987-1.88 1.773-3.16 2.36-1.254.56-2.627.84-4.12.84Zm13.239-.4v-18.4h1.24V128h-1.24Zm1.24-11.24-.84-.24c0-2.347.614-4.147 1.84-5.4 1.254-1.28 2.814-1.92 4.68-1.92.907 0 1.747.16 2.52.48.8.32 1.534.827 2.2 1.52l-.84.92c-.56-.613-1.173-1.053-1.84-1.32-.64-.267-1.386-.4-2.24-.4-1.626 0-2.946.56-3.96 1.68-1.013 1.093-1.52 2.653-1.52 4.68ZM144.083 128v-18.4h1.24V128h-1.24Zm.6-23c-.347 0-.64-.133-.88-.4a1.335 1.335 0 0 1-.36-.92c0-.373.12-.68.36-.92s.533-.36.88-.36c.373 0 .68.12.92.36.266.24.4.547.4.92 0 .347-.134.653-.4.92-.24.267-.547.4-.92.4Zm15.375 23.4c-1.813 0-3.44-.413-4.88-1.24a9.449 9.449 0 0 1-3.36-3.44c-.827-1.44-1.24-3.067-1.24-4.88 0-1.813.413-3.44 1.24-4.88a9.356 9.356 0 0 1 3.36-3.48c1.413-.853 3.013-1.28 4.8-1.28 1.413 0 2.68.267 3.8.8a7.246 7.246 0 0 1 2.84 2.2c.773.96 1.307 2.107 1.6 3.44v6.28c-.32 1.333-.867 2.493-1.64 3.48a7.672 7.672 0 0 1-2.8 2.24c-1.093.507-2.333.76-3.72.76Zm.16-1.16c2.293 0 4.12-.76 5.48-2.28 1.36-1.547 2.04-3.587 2.04-6.12 0-1.707-.32-3.187-.96-4.44-.613-1.28-1.493-2.267-2.64-2.96-1.147-.72-2.48-1.08-4-1.08-1.6 0-3.027.373-4.28 1.12-1.227.72-2.2 1.72-2.92 3-.72 1.253-1.08 2.693-1.08 4.32 0 1.627.36 3.08 1.08 4.36a8.195 8.195 0 0 0 2.96 3c1.28.72 2.72 1.08 4.32 1.08Zm7.48.76v-4.92l.36-4.56-.36-4.44v-4.48h1.24V128h-1.24Z"/>
</svg>
